<svg xmlns="http://www.w3.org/2000/svg" xmlns:xlink="http://www.w3.org/1999/xlink" width="500" zoomAndPan="magnify" viewBox="0 0 375 374.999991" height="500" preserveAspectRatio="xMidYMid meet" version="1.0"><defs><g/><clipPath id="709ead7bec"><path d="M 14.597656 4.613281 L 304 4.613281 L 304 103 L 14.597656 103 Z M 14.597656 4.613281 " clip-rule="nonzero"/></clipPath><clipPath id="0644845601"><path d="M 188 6 L 355.796875 6 L 355.796875 101 L 188 101 Z M 188 6 " clip-rule="nonzero"/></clipPath></defs><g fill="#ffffff" fill-opacity="1"><g transform="translate(166.989257, 287.588475)"><g><path d="M 13.3125 0 L 81.691406 0 C 139.113281 0 176.175781 -39.671875 175.914062 -94.742188 C 175.652344 -137.023438 147.464844 -182.699219 75.691406 -182.699219 L 13.3125 -182.699219 L 13.3125 -179.308594 C 21.140625 -176.957031 23.75 -170.957031 23.75 -149.554688 L 23.75 -33.148438 C 23.75 -11.746094 21.140625 -5.742188 13.3125 -3.394531 Z M 45.152344 -22.96875 L 45.152344 -178.785156 L 62.902344 -178.785156 C 121.105469 -178.785156 152.164062 -136.503906 152.164062 -84.304688 C 152.164062 -29.753906 126.847656 -3.914062 81.171875 -3.914062 L 62.117188 -3.914062 C 47.761719 -3.914062 45.152344 -10.699219 45.152344 -22.96875 Z M 45.152344 -22.96875 "/></g></g></g><g fill="#ffffff" fill-opacity="1"><g transform="translate(53.793658, 283.071597)"><g><path d="M 242.96875 43.578125 C 235.789062 45.453125 229.425781 46.390625 223.875 46.390625 C 218.320312 46.390625 213.410156 46.046875 209.140625 45.359375 C 204.867188 44.679688 200.296875 43.359375 195.421875 41.390625 C 190.554688 39.421875 185.988281 37.15625 181.71875 34.59375 C 177.445312 32.03125 173.175781 28.867188 168.90625 25.109375 C 161.039062 18.796875 153.90625 11.960938 147.5 4.609375 C 141.09375 -2.734375 128.75 -16.53125 110.46875 -36.78125 C 92.1875 -57.03125 80.050781 -70.484375 74.0625 -77.140625 C 68.082031 -83.804688 63.472656 -87.3125 60.234375 -87.65625 L 60.234375 -90.21875 C 70.140625 -90.21875 76.757812 -90.429688 80.09375 -90.859375 C 83.425781 -91.285156 86.972656 -92.050781 90.734375 -93.15625 C 94.492188 -94.269531 97.65625 -95.769531 100.21875 -97.65625 C 110.289062 -104.144531 115.328125 -114.90625 115.328125 -129.9375 C 115.328125 -142.414062 112.550781 -152.410156 107 -159.921875 C 101.445312 -167.441406 93.628906 -171.289062 83.546875 -171.46875 L 51.765625 -171.46875 L 51.765625 -18.703125 C 51.765625 -14.429688 53.34375 -10.671875 56.5 -7.421875 C 59.664062 -4.179688 63.554688 -2.5625 68.171875 -2.5625 L 71.25 -2.5625 L 71.5 0 L 15.375 0 L 15.375 -2.5625 L 18.703125 -2.5625 C 22.972656 -2.5625 26.734375 -4.097656 29.984375 -7.171875 C 33.234375 -10.253906 34.941406 -14.015625 35.109375 -18.453125 L 35.109375 -160.703125 C 34.941406 -165.140625 33.273438 -168.9375 30.109375 -172.09375 C 26.953125 -175.257812 23.148438 -176.84375 18.703125 -176.84375 L 15.375 -176.84375 L 15.375 -179.40625 L 84.578125 -179.40625 C 99.609375 -179.40625 111.695312 -175.175781 120.84375 -166.71875 C 129.988281 -158.257812 134.5625 -147.066406 134.5625 -133.140625 C 134.5625 -119.222656 130.375 -107.265625 122 -97.265625 C 113.625 -87.265625 103.367188 -82.265625 91.234375 -82.265625 C 91.234375 -82.265625 91.148438 -82.265625 90.984375 -82.265625 C 96.796875 -76.117188 103.375 -68.945312 110.71875 -60.75 C 140.28125 -28.113281 159.242188 -7.609375 167.609375 0.765625 C 175.984375 9.140625 183.375 16.015625 189.78125 21.390625 C 196.195312 26.773438 201.878906 30.75 206.828125 33.3125 C 216.910156 38.78125 226.90625 41.515625 236.8125 41.515625 C 238.863281 41.515625 240.914062 41.34375 242.96875 41 Z M 242.96875 43.578125 "/></g></g></g><g clip-path="url(#709ead7bec)"><path fill="#ffffff" d="M 19.792969 101.714844 L 159.015625 11.644531 C 159.015625 11.644531 298.242188 101.714844 298.242188 101.714844 C 299.679688 102.644531 301.609375 102.234375 302.542969 100.792969 C 303.472656 99.351562 303.0625 97.421875 301.617188 96.492188 C 301.617188 96.492188 160.707031 5.328125 160.707031 5.328125 C 159.675781 4.664062 158.355469 4.664062 157.328125 5.328125 C 157.328125 5.328125 16.414062 96.492188 16.414062 96.492188 C 14.972656 97.421875 14.5625 99.351562 15.492188 100.792969 C 16.425781 102.234375 18.351562 102.644531 19.792969 101.714844 Z M 19.792969 101.714844 " fill-opacity="1" fill-rule="evenodd"/></g><g clip-path="url(#0644845601)"><path fill="#ffffff" d="M 193.4375 30.0625 L 219.046875 13.492188 C 219.046875 13.492188 350.675781 99.84375 350.675781 99.84375 C 352.109375 100.785156 354.039062 100.382812 354.980469 98.949219 C 355.921875 97.511719 355.519531 95.585938 354.085938 94.644531 C 354.085938 94.644531 220.765625 7.179688 220.765625 7.179688 C 219.734375 6.503906 218.402344 6.5 217.371094 7.167969 C 217.371094 7.167969 206.03125 14.503906 190.058594 24.839844 C 188.617188 25.769531 188.203125 27.695312 189.136719 29.140625 C 190.070312 30.578125 191.996094 30.992188 193.4375 30.0625 Z M 193.4375 30.0625 " fill-opacity="1" fill-rule="evenodd"/></g><path fill="#ffffff" d="M 95.414062 49.996094 L 95.414062 26.507812 C 95.414062 24.800781 94.023438 23.414062 92.316406 23.414062 L 66.410156 23.414062 C 64.6875 23.414062 63.308594 24.800781 63.308594 26.507812 L 63.308594 67.851562 C 63.308594 69.558594 64.6875 70.945312 66.410156 70.945312 C 68.117188 70.945312 69.507812 69.558594 69.507812 67.851562 L 69.507812 29.605469 C 69.507812 29.605469 89.214844 29.605469 89.214844 29.605469 L 89.214844 49.996094 C 89.214844 51.703125 90.605469 53.089844 92.316406 53.089844 C 94.023438 53.089844 95.414062 51.703125 95.414062 49.996094 Z M 95.414062 49.996094 " fill-opacity="1" fill-rule="evenodd"/></svg>